<mxfile host="app.diagrams.net" agent="Mozilla/5.0 (Windows NT 10.0; Win64; x64) AppleWebKit/537.36 (KHTML, like Gecko) Chrome/128.0.0.0 Safari/537.36" version="24.7.8">
  <diagram name="Page-1" id="8p9Dv3Fxdxj7OWQXvdmj">
    <mxGraphModel dx="546" dy="762" grid="1" gridSize="10" guides="1" tooltips="1" connect="1" arrows="1" fold="1" page="1" pageScale="1" pageWidth="850" pageHeight="1100" math="0" shadow="0">
      <root>
        <mxCell id="0" />
        <mxCell id="1" parent="0" />
        <mxCell id="cHvRvG1Q0VIZGnwxWqiH-12" style="edgeStyle=orthogonalEdgeStyle;rounded=0;orthogonalLoop=1;jettySize=auto;html=1;" edge="1" parent="1" source="cHvRvG1Q0VIZGnwxWqiH-1" target="cHvRvG1Q0VIZGnwxWqiH-2">
          <mxGeometry relative="1" as="geometry" />
        </mxCell>
        <mxCell id="cHvRvG1Q0VIZGnwxWqiH-1" value="Start" style="ellipse;whiteSpace=wrap;html=1;fillColor=#d5e8d4;strokeColor=#82b366;" vertex="1" parent="1">
          <mxGeometry x="70" y="100" width="120" height="80" as="geometry" />
        </mxCell>
        <mxCell id="cHvRvG1Q0VIZGnwxWqiH-13" style="edgeStyle=orthogonalEdgeStyle;rounded=0;orthogonalLoop=1;jettySize=auto;html=1;" edge="1" parent="1" source="cHvRvG1Q0VIZGnwxWqiH-2" target="cHvRvG1Q0VIZGnwxWqiH-4">
          <mxGeometry relative="1" as="geometry" />
        </mxCell>
        <mxCell id="cHvRvG1Q0VIZGnwxWqiH-2" value="&lt;b&gt;Deg F &lt;/b&gt;is 86" style="rounded=1;whiteSpace=wrap;html=1;" vertex="1" parent="1">
          <mxGeometry x="70" y="230" width="120" height="60" as="geometry" />
        </mxCell>
        <mxCell id="cHvRvG1Q0VIZGnwxWqiH-17" style="edgeStyle=orthogonalEdgeStyle;rounded=0;orthogonalLoop=1;jettySize=auto;html=1;exitX=0.5;exitY=1;exitDx=0;exitDy=0;" edge="1" parent="1" source="cHvRvG1Q0VIZGnwxWqiH-3" target="cHvRvG1Q0VIZGnwxWqiH-7">
          <mxGeometry relative="1" as="geometry" />
        </mxCell>
        <mxCell id="cHvRvG1Q0VIZGnwxWqiH-24" style="edgeStyle=orthogonalEdgeStyle;rounded=0;orthogonalLoop=1;jettySize=auto;html=1;exitX=1;exitY=0.5;exitDx=0;exitDy=0;entryX=0;entryY=0.5;entryDx=0;entryDy=0;shape=link;" edge="1" parent="1" source="cHvRvG1Q0VIZGnwxWqiH-3" target="cHvRvG1Q0VIZGnwxWqiH-6">
          <mxGeometry relative="1" as="geometry" />
        </mxCell>
        <mxCell id="cHvRvG1Q0VIZGnwxWqiH-3" value="Subtract &lt;b&gt;Freeze Point&lt;/b&gt;&amp;nbsp;from &lt;b&gt;Deg F&lt;/b&gt;" style="rounded=1;whiteSpace=wrap;html=1;" vertex="1" parent="1">
          <mxGeometry x="80" y="390" width="120" height="60" as="geometry" />
        </mxCell>
        <mxCell id="cHvRvG1Q0VIZGnwxWqiH-14" style="edgeStyle=orthogonalEdgeStyle;rounded=0;orthogonalLoop=1;jettySize=auto;html=1;" edge="1" parent="1" source="cHvRvG1Q0VIZGnwxWqiH-4" target="cHvRvG1Q0VIZGnwxWqiH-5">
          <mxGeometry relative="1" as="geometry" />
        </mxCell>
        <mxCell id="cHvRvG1Q0VIZGnwxWqiH-4" value="&lt;b&gt;Freeze Point &lt;/b&gt;is 32" style="rounded=1;whiteSpace=wrap;html=1;" vertex="1" parent="1">
          <mxGeometry x="230" y="230" width="120" height="60" as="geometry" />
        </mxCell>
        <mxCell id="cHvRvG1Q0VIZGnwxWqiH-16" style="edgeStyle=orthogonalEdgeStyle;rounded=0;orthogonalLoop=1;jettySize=auto;html=1;exitX=0.5;exitY=1;exitDx=0;exitDy=0;" edge="1" parent="1" source="cHvRvG1Q0VIZGnwxWqiH-5" target="cHvRvG1Q0VIZGnwxWqiH-3">
          <mxGeometry relative="1" as="geometry" />
        </mxCell>
        <mxCell id="cHvRvG1Q0VIZGnwxWqiH-5" value="&lt;b&gt;C Factor&lt;/b&gt;&lt;br&gt;is 5/9" style="rounded=1;whiteSpace=wrap;html=1;" vertex="1" parent="1">
          <mxGeometry x="380" y="230" width="120" height="60" as="geometry" />
        </mxCell>
        <mxCell id="cHvRvG1Q0VIZGnwxWqiH-6" value="54" style="rhombus;whiteSpace=wrap;html=1;" vertex="1" parent="1">
          <mxGeometry x="230" y="380" width="80" height="80" as="geometry" />
        </mxCell>
        <mxCell id="cHvRvG1Q0VIZGnwxWqiH-18" style="edgeStyle=orthogonalEdgeStyle;rounded=0;orthogonalLoop=1;jettySize=auto;html=1;exitX=0.5;exitY=1;exitDx=0;exitDy=0;" edge="1" parent="1" source="cHvRvG1Q0VIZGnwxWqiH-7" target="cHvRvG1Q0VIZGnwxWqiH-9">
          <mxGeometry relative="1" as="geometry" />
        </mxCell>
        <mxCell id="cHvRvG1Q0VIZGnwxWqiH-7" value="Multiply Result by &lt;b&gt;C Factor&lt;/b&gt;" style="rounded=1;whiteSpace=wrap;html=1;" vertex="1" parent="1">
          <mxGeometry x="80" y="520" width="120" height="60" as="geometry" />
        </mxCell>
        <mxCell id="cHvRvG1Q0VIZGnwxWqiH-22" style="edgeStyle=orthogonalEdgeStyle;rounded=0;orthogonalLoop=1;jettySize=auto;html=1;exitX=0;exitY=0.5;exitDx=0;exitDy=0;entryX=1;entryY=0.5;entryDx=0;entryDy=0;shape=link;" edge="1" parent="1" source="cHvRvG1Q0VIZGnwxWqiH-8" target="cHvRvG1Q0VIZGnwxWqiH-7">
          <mxGeometry relative="1" as="geometry" />
        </mxCell>
        <mxCell id="cHvRvG1Q0VIZGnwxWqiH-8" value="30" style="rhombus;whiteSpace=wrap;html=1;" vertex="1" parent="1">
          <mxGeometry x="230" y="510" width="80" height="80" as="geometry" />
        </mxCell>
        <mxCell id="cHvRvG1Q0VIZGnwxWqiH-19" style="edgeStyle=orthogonalEdgeStyle;rounded=0;orthogonalLoop=1;jettySize=auto;html=1;exitX=0.5;exitY=1;exitDx=0;exitDy=0;" edge="1" parent="1" source="cHvRvG1Q0VIZGnwxWqiH-9" target="cHvRvG1Q0VIZGnwxWqiH-11">
          <mxGeometry relative="1" as="geometry" />
        </mxCell>
        <mxCell id="cHvRvG1Q0VIZGnwxWqiH-25" style="edgeStyle=orthogonalEdgeStyle;rounded=0;orthogonalLoop=1;jettySize=auto;html=1;exitX=1;exitY=0.5;exitDx=0;exitDy=0;shape=link;" edge="1" parent="1" source="cHvRvG1Q0VIZGnwxWqiH-9" target="cHvRvG1Q0VIZGnwxWqiH-10">
          <mxGeometry relative="1" as="geometry" />
        </mxCell>
        <mxCell id="cHvRvG1Q0VIZGnwxWqiH-9" value="Result is &lt;b&gt;Deg C&lt;/b&gt;" style="rounded=1;whiteSpace=wrap;html=1;" vertex="1" parent="1">
          <mxGeometry x="80" y="650" width="120" height="60" as="geometry" />
        </mxCell>
        <mxCell id="cHvRvG1Q0VIZGnwxWqiH-10" value="30 C" style="rhombus;whiteSpace=wrap;html=1;" vertex="1" parent="1">
          <mxGeometry x="230" y="640" width="80" height="80" as="geometry" />
        </mxCell>
        <mxCell id="cHvRvG1Q0VIZGnwxWqiH-11" value="End" style="ellipse;whiteSpace=wrap;html=1;fillColor=#f8cecc;strokeColor=#b85450;" vertex="1" parent="1">
          <mxGeometry x="240" y="770" width="120" height="80" as="geometry" />
        </mxCell>
      </root>
    </mxGraphModel>
  </diagram>
</mxfile>
